<svg width="86" height="78" viewBox="0 0 86 78" fill="none" xmlns="http://www.w3.org/2000/svg">
<path d="M0 17.3333V8.66667C0 6.28333 0.842083 4.24306 2.52625 2.54583C4.21042 0.848611 6.235 0 8.6 0H77.4C79.765 0 81.7896 0.848611 83.4738 2.54583C85.1579 4.24306 86 6.28333 86 8.66667V17.3333H77.4V8.66667H8.6V17.3333H0ZM25.8 78V69.3333H8.6C6.235 69.3333 4.21042 68.4847 2.52625 66.7875C0.842083 65.0903 0 63.05 0 60.6667V52H8.6V60.6667H77.4V52H86V60.6667C86 63.05 85.1579 65.0903 83.4738 66.7875C81.7896 68.4847 79.765 69.3333 77.4 69.3333H60.2V78H25.8ZM12.04 34.6667L23.22 23.4L17.2 17.3333L0 34.6667L17.2 52L23.22 45.9333L12.04 34.6667ZM73.96 34.6667L62.78 45.9333L68.8 52L86 34.6667L68.8 17.3333L62.78 23.4L73.96 34.6667Z" fill="#4F9CAE"/>
</svg>
