<svg width="136" height="87" viewBox="0 0 136 87" fill="none" xmlns="http://www.w3.org/2000/svg">
<path d="M91.3612 87C89.1543 87 86.9719 86.4597 84.814 85.379C82.6561 84.2983 80.9151 82.8738 79.5909 81.1054C80.866 81.1054 82.1657 80.602 83.4898 79.595C84.814 78.588 85.4761 77.1266 85.4761 75.2109C85.4761 72.7548 86.3343 70.6672 88.0508 68.9479C89.7673 67.2287 91.8517 66.3691 94.3038 66.3691C96.756 66.3691 98.8403 67.2287 100.557 68.9479C102.273 70.6672 103.132 72.7548 103.132 75.2109C103.132 78.4529 101.979 81.2282 99.674 83.5369C97.369 85.8456 94.5981 87 91.3612 87ZM91.3612 81.1054C92.9797 81.1054 94.3651 80.5283 95.5176 79.3739C96.6702 78.2196 97.2464 76.8319 97.2464 75.2109C97.2464 74.3758 96.9644 73.6758 96.4004 73.111C95.8364 72.5461 95.1376 72.2636 94.3038 72.2636C93.4701 72.2636 92.7712 72.5461 92.2072 73.111C91.6432 73.6758 91.3612 74.3758 91.3612 75.2109C91.3612 76.3407 91.2264 77.3722 90.9566 78.3055C90.6869 79.2388 90.3313 80.123 89.8899 80.9581C90.1352 81.0563 90.3804 81.1054 90.6256 81.1054H91.3612ZM108.281 69.3163L100.189 61.2113L126.525 34.8332C127.065 34.2929 127.739 34.0104 128.548 33.9858C129.357 33.9613 130.056 34.2437 130.645 34.8332L134.617 38.812C135.206 39.4015 135.5 40.0892 135.5 40.8751C135.5 41.661 135.206 42.3487 134.617 42.9382L108.281 69.3163Z" fill="#4F9CAE"/>
<path d="M43.4545 85.6406C37.5841 85.6406 32.0358 84.5166 26.8097 82.2685C21.5835 80.0205 17.0196 76.9517 13.1179 73.0622C9.21619 69.1726 6.13778 64.623 3.88267 59.4132C1.62756 54.2034 0.5 48.6724 0.5 42.8203C0.5 36.8968 1.66335 31.3302 3.99006 26.1204C6.31676 20.9106 9.46676 16.3788 13.4401 12.5249C17.4134 8.67111 22.0489 5.62017 27.3466 3.3721C32.6443 1.12403 38.3 0 44.3136 0C50.0409 0 55.446 0.981299 60.529 2.9439C65.6119 4.90649 70.0685 7.61845 73.8986 11.0798C77.7287 14.5411 80.7713 18.6447 83.0264 23.3906C85.2815 28.1365 86.4091 33.2571 86.4091 38.7524C86.4091 46.9596 83.9034 53.2578 78.892 57.6468C73.8807 62.0359 67.7955 64.2305 60.6364 64.2305H52.6898C52.0455 64.2305 51.598 64.4089 51.3474 64.7657C51.0969 65.1226 50.9716 65.5151 50.9716 65.9433C50.9716 66.7997 51.5085 68.0308 52.5824 69.6365C53.6562 71.2423 54.1932 73.08 54.1932 75.1497C54.1932 78.718 53.2088 81.3586 51.2401 83.0714C49.2713 84.7842 46.6761 85.6406 43.4545 85.6406ZM19.8295 47.1023C21.6909 47.1023 23.2301 46.4957 24.4472 45.2825C25.6642 44.0692 26.2727 42.5348 26.2727 40.6793C26.2727 38.8237 25.6642 37.2894 24.4472 36.0761C23.2301 34.8629 21.6909 34.2563 19.8295 34.2563C17.9682 34.2563 16.429 34.8629 15.2119 36.0761C13.9949 37.2894 13.3864 38.8237 13.3864 40.6793C13.3864 42.5348 13.9949 44.0692 15.2119 45.2825C16.429 46.4957 17.9682 47.1023 19.8295 47.1023ZM32.7159 29.9742C34.5773 29.9742 36.1165 29.3676 37.3335 28.1544C38.5506 26.9411 39.1591 25.4067 39.1591 23.5512C39.1591 21.6956 38.5506 20.1612 37.3335 18.948C36.1165 17.7347 34.5773 17.1281 32.7159 17.1281C30.8545 17.1281 29.3153 17.7347 28.0983 18.948C26.8813 20.1612 26.2727 21.6956 26.2727 23.5512C26.2727 25.4067 26.8813 26.9411 28.0983 28.1544C29.3153 29.3676 30.8545 29.9742 32.7159 29.9742ZM54.1932 29.9742C56.0545 29.9742 57.5938 29.3676 58.8108 28.1544C60.0278 26.9411 60.6364 25.4067 60.6364 23.5512C60.6364 21.6956 60.0278 20.1612 58.8108 18.948C57.5938 17.7347 56.0545 17.1281 54.1932 17.1281C52.3318 17.1281 50.7926 17.7347 49.5756 18.948C48.3585 20.1612 47.75 21.6956 47.75 23.5512C47.75 25.4067 48.3585 26.9411 49.5756 28.1544C50.7926 29.3676 52.3318 29.9742 54.1932 29.9742ZM67.0795 47.1023C68.9409 47.1023 70.4801 46.4957 71.6972 45.2825C72.9142 44.0692 73.5227 42.5348 73.5227 40.6793C73.5227 38.8237 72.9142 37.2894 71.6972 36.0761C70.4801 34.8629 68.9409 34.2563 67.0795 34.2563C65.2182 34.2563 63.679 34.8629 62.4619 36.0761C61.2449 37.2894 60.6364 38.8237 60.6364 40.6793C60.6364 42.5348 61.2449 44.0692 62.4619 45.2825C63.679 46.4957 65.2182 47.1023 67.0795 47.1023ZM43.4545 77.0766C44.0989 77.0766 44.6179 76.8981 45.0117 76.5413C45.4054 76.1845 45.6023 75.7206 45.6023 75.1497C45.6023 74.1505 45.0653 72.9729 43.9915 71.617C42.9176 70.261 42.3807 68.227 42.3807 65.5151C42.3807 62.5177 43.4188 60.1269 45.4949 58.3427C47.571 56.5585 50.1125 55.6664 53.1193 55.6664H60.6364C65.3614 55.6664 69.4062 54.2926 72.771 51.545C76.1358 48.7973 77.8182 44.5331 77.8182 38.7524C77.8182 30.117 74.5071 22.9267 67.8849 17.1817C61.2628 11.4366 53.4057 8.56406 44.3136 8.56406C34.5773 8.56406 26.2727 11.8826 19.4 18.5198C12.5273 25.1569 9.09091 33.2571 9.09091 42.8203C9.09091 52.3121 12.4378 60.3945 19.1315 67.0673C25.8253 73.7402 33.933 77.0766 43.4545 77.0766Z" fill="#4F9CAE"/>
</svg>
