<svg width="96" height="94" viewBox="0 0 96 94" fill="none" xmlns="http://www.w3.org/2000/svg">
<path d="M11.6616 46.3644L16.0936 41.6889L9.29105 22.5988L0 13.6385L10.637 2.41728L18.6273 10.1231L29.1402 9.16402L37.827 0L48.9763 10.7523L38.3393 21.9736L30.349 14.2677L19.8361 15.2268L14.2517 21.118L20.0825 37.481L22.2985 35.1432L33.4478 45.8955L22.8108 57.1168L11.6616 46.3644ZM34.4522 11.0649L38.1686 14.6491L41.7142 10.9086L37.9978 7.32453L34.4522 11.0649ZM7.26207 13.4822L10.9785 17.0663L14.5241 13.3259L10.8077 9.74181L7.26207 13.4822ZM18.9237 46.2081L22.6401 49.7922L26.1857 46.0518L22.4693 42.4677L18.9237 46.2081Z" fill="#4F9CAE"/>
<path d="M46.0017 62.4808C44.283 62.4808 42.8117 61.8635 41.5878 60.629C40.3639 59.3945 39.7519 57.9105 39.7519 56.177V43.5693C39.7519 41.8357 40.3639 40.3517 41.5878 39.1172C42.8117 37.8827 44.283 37.2654 46.0017 37.2654H89.7502C91.4689 37.2654 92.9402 37.8827 94.1641 39.1172C95.388 40.3517 96 41.8357 96 43.5693V56.177C96 57.9105 95.388 59.3945 94.1641 60.629C92.9402 61.8635 91.4689 62.4808 89.7502 62.4808H46.0017ZM46.0017 56.177H89.7502V43.5693H46.0017V56.177ZM46.0017 94C44.283 94 42.8117 93.3828 41.5878 92.1482C40.3639 90.9137 39.7519 89.4297 39.7519 87.6962V75.0885C39.7519 73.3549 40.3639 71.8709 41.5878 70.6364C42.8117 69.4019 44.283 68.7846 46.0017 68.7846H89.7502C91.4689 68.7846 92.9402 69.4019 94.1641 70.6364C95.388 71.8709 96 73.3549 96 75.0885V87.6962C96 89.4297 95.388 90.9137 94.1641 92.1482C92.9402 93.3828 91.4689 94 89.7502 94H46.0017ZM46.0017 87.6962H89.7502V75.0885H46.0017V87.6962Z" fill="#4F9CAE"/>
</svg>
